<svg width="155" height="85" viewBox="0 0 155 85" fill="none" xmlns="http://www.w3.org/2000/svg">
<defs>
<linearGradient id="paint0_linear_12_3" x1="12" y1="23" x2="110" y2="54.5" gradientUnits="userSpaceOnUse">
<stop offset="0.135285" stop-color="#637337"/>
<stop offset="1" stop-color="#DBE5BE"/>
</linearGradient>
</defs>
<path d="M0.518993 48.0777C2.12854 93.617 105.489 107.263 100.038 21.5781C100.016 21.2315 100.172 20.8751 100.459 20.6793C103.76 18.4265 106.926 17.51 116.835 17.5C116.942 17.4999 117.054 17.4829 117.155 17.4453C121.488 15.8272 120.954 8.51779 117 8.4999C91.4944 8.38448 71.8364 19.9999 59.5 50.4998C57.8821 54.5 52.363 52.8772 53.5 50.4998C64.5 27.5 70 16.4999 90 8.49992C76.5 -6.00005 54 0.999961 47 8.49991C39.5524 16.4795 37 22.4999 32 36C27.1251 49.1623 13.5766 47.8337 1.55991 47.0661C0.985035 47.0294 0.498645 47.502 0.518993 48.0777Z" fill="url(#paint0_linear_12_3)"/>
<path d="M46.6177 52.4H49.4177L55.2977 64.3C55.447 64.5427 55.5683 64.832 55.6617 65.168C55.7363 65.448 55.783 65.6253 55.8017 65.7H55.9137C55.9323 65.6253 55.979 65.448 56.0537 65.168C56.147 64.832 56.2683 64.5427 56.4177 64.3L62.2977 52.4H65.0977V72H62.2977V59.68C62.2977 59.3813 62.3163 58.8773 62.3537 58.168L62.4097 57.3H62.2977L62.0457 58.168C61.9897 58.3173 61.9057 58.56 61.7937 58.896C61.6817 59.2133 61.5697 59.4747 61.4577 59.68L56.9777 68.5H54.7377L50.2577 59.68C50.1457 59.4747 50.0337 59.2133 49.9217 58.896C49.8097 58.56 49.7257 58.3173 49.6697 58.168L49.4177 57.3H49.3057L49.3617 58.168C49.399 58.8773 49.4177 59.3813 49.4177 59.68V72H46.6177V52.4ZM71.3933 77.88C70.6279 77.88 69.9466 77.74 69.3493 77.46C69.0319 77.348 68.7799 77.208 68.5933 77.04L69.2933 75.22H69.5733C69.7599 75.4067 69.9093 75.528 70.0213 75.584C70.3759 75.808 70.7399 75.92 71.1133 75.92C71.5986 75.92 72.0279 75.7333 72.4013 75.36C72.7933 75.0053 73.0639 74.5387 73.2133 73.96L73.7733 72H72.9333L68.1453 58H70.8333L73.9133 67.24C74.0066 67.52 74.1373 67.996 74.3053 68.668C74.3613 68.836 74.4266 69.1067 74.5013 69.48H74.6133C74.6506 69.1813 74.7066 68.9107 74.7813 68.668L75.1453 67.24L77.6933 58H80.4933L76.0133 73.96C75.6773 75.136 75.1079 76.0787 74.3053 76.788C73.5026 77.516 72.5319 77.88 71.3933 77.88Z" fill="white"/>
<path d="M90.2329 52.4H95.2729C97.6436 52.4 99.3982 52.9413 100.537 54.024C101.694 55.1067 102.273 56.712 102.273 58.84C102.273 60.968 101.694 62.5733 100.537 63.656C99.3982 64.7387 97.6436 65.28 95.2729 65.28H93.0329V72H90.2329V52.4ZM95.2729 63.32C96.6916 63.32 97.7462 62.956 98.4369 62.228C99.1276 61.5 99.4729 60.3707 99.4729 58.84C99.4729 57.3093 99.1276 56.18 98.4369 55.452C97.7462 54.724 96.6916 54.36 95.2729 54.36H93.0329V63.32H95.2729ZM105.645 72V53.24L106.485 52.4H108.445V72H105.645ZM116.425 72.28C114.969 72.28 113.83 71.8973 113.009 71.132C112.206 70.348 111.805 69.284 111.805 67.94C111.805 66.6147 112.281 65.588 113.233 64.86C114.204 64.1133 115.734 63.74 117.825 63.74H120.065V63.04C120.065 61.9387 119.804 61.108 119.281 60.548C118.777 59.9693 118.058 59.68 117.125 59.68C116.453 59.68 115.725 59.8947 114.941 60.324C114.549 60.548 114.25 60.7533 114.045 60.94H113.765L112.785 59.26C113.158 58.98 113.578 58.728 114.045 58.504C115.053 57.9813 116.173 57.72 117.405 57.72C118.469 57.72 119.412 57.9533 120.233 58.42C121.054 58.868 121.698 59.5027 122.165 60.324C122.632 61.1267 122.865 62.032 122.865 63.04V72H120.905L120.625 70.32H120.485C120.224 70.6933 119.897 71.02 119.505 71.3C118.684 71.9533 117.657 72.28 116.425 72.28ZM117.125 70.18C117.816 70.18 118.516 69.9 119.225 69.34C119.542 69.0787 119.822 68.7987 120.065 68.5V65.7H117.825C116.761 65.7 115.958 65.9053 115.417 66.316C114.876 66.7267 114.605 67.268 114.605 67.94C114.605 68.668 114.81 69.228 115.221 69.62C115.65 69.9933 116.285 70.18 117.125 70.18ZM126.918 58H128.878L129.158 59.68H129.298C129.504 59.3813 129.83 59.0547 130.278 58.7C131.193 58.0467 132.22 57.72 133.358 57.72C134.758 57.72 135.897 58.168 136.774 59.064C137.67 59.9413 138.118 61.08 138.118 62.48V72H135.318V62.48C135.318 61.696 135.066 61.0613 134.562 60.576C134.077 60.072 133.442 59.82 132.658 59.82C131.968 59.82 131.268 60.1 130.558 60.66C130.26 60.9213 129.98 61.2013 129.718 61.5V72H126.918V58ZM147.356 72.28C145.956 72.28 144.836 71.8693 143.996 71.048C143.156 70.2267 142.736 69.144 142.736 67.8V59.96H140.636V58.28L144.276 54.64H145.536V58H149.036V59.96H145.536V67.8C145.536 68.6213 145.723 69.2467 146.096 69.676C146.47 70.1053 146.983 70.32 147.636 70.32C148.196 70.32 148.747 70.1333 149.288 69.76C149.531 69.592 149.774 69.4053 150.016 69.2H150.296L151.276 70.88C150.866 71.1973 150.492 71.4307 150.156 71.58C149.26 72.0467 148.327 72.28 147.356 72.28Z" fill="#637337"/>
</svg>
